<svg xmlns="http://www.w3.org/2000/svg" viewBox="0 0 667 667" width="667" height="667">
	<style>
		tspan { white-space:pre }
		.shp0 { fill: #0c0c0c } 
	</style>
	<path id="Path 0" fill-rule="evenodd" class="shp0" d="M345 108L350.75 111.85C353.91 113.96 358.3 117.73 360.5 120.21C362.7 122.7 365.32 126.93 366.33 129.62C367.34 132.3 368.41 137.88 368.72 142C369.08 146.8 368.83 150.94 368.02 153.5C367.32 155.7 364.78 160.54 362.38 164.25C359.54 168.62 355.71 172.76 351.5 176C347.23 179.29 344.78 181.94 344.36 183.75C344.01 185.26 344.12 187.58 344.61 188.9C345.1 190.22 346.76 192.24 351.11 195.5L357.8 192.05C361.62 190.08 366.97 186.1 370.25 182.8C373.41 179.61 378.43 173.74 386.82 162.5L386.67 141.5C386.57 126.45 386.88 119.86 387.76 118.25C388.68 116.58 389.9 116 392.5 116C394.43 116 400.39 117.41 405.75 119.12C411.11 120.84 420.68 124.46 427 127.17C433.32 129.88 443.63 134.88 449.9 138.3C456.18 141.71 465.85 148.17 471.4 152.66C476.96 157.14 486 165.24 491.5 170.66C497 176.07 506.12 185.68 511.78 192C517.43 198.32 523.71 205.97 525.73 209C527.75 212.03 532.13 219.22 535.46 225C538.79 230.78 543.92 241.35 546.88 248.5C549.83 255.65 553.56 266.68 555.17 273C556.77 279.32 558.94 289.9 560 296.5C561.06 303.1 562.61 315.25 563.45 323.5C564.3 331.75 565 341.2 565 344.5C565.01 347.8 563.44 360.18 561.51 372C559.58 383.82 557.28 396.65 556.38 400.5C555.49 404.35 553.65 410.43 552.29 414C550.93 417.57 547.8 425.23 545.34 431C542.87 436.77 539.98 443.07 538.92 445C537.86 446.93 535.17 451.88 532.94 456C530.72 460.13 525.88 467.62 522.2 472.66C518.51 477.71 512.32 485.58 508.43 490.16C504.55 494.75 496.2 503.23 489.89 509C483.58 514.77 472.81 523.43 465.95 528.23C458.9 533.17 446.35 540.58 437 545.31C426.75 550.5 415.2 555.41 406.5 558.29C398.8 560.83 389.8 563.58 386.5 564.41C383.2 565.23 375.32 566.4 369 567C362.68 567.6 355.25 568.56 352.5 569.13C349.6 569.72 338.88 569.99 327 569.76C308.63 569.4 304.94 569.03 291.5 566.16C283.25 564.4 271.66 561.39 265.75 559.48C259.84 557.57 254.1 556 253 556C251.9 556 242.79 551.82 232.75 546.72C221.89 541.19 209.03 533.64 201 528.08C193.57 522.93 184.82 516.42 181.55 513.61C178.28 510.8 173.4 506.25 170.69 503.5C167.99 500.75 162.38 494.68 158.24 490C154.09 485.32 147.27 476.32 143.08 470C138.89 463.68 130.86 449.27 125.24 438C117.39 422.28 114.23 414.7 111.67 405.5C109.83 398.9 107.57 390.35 106.65 386.5C105.73 382.65 104.54 375.45 104 370.5C103.46 365.55 103.02 356.1 103.02 349.5C103.03 342.9 103.46 329.63 103.99 320C104.51 310.38 105.67 298.23 106.56 293C107.44 287.77 109.07 280.35 110.18 276.5C111.29 272.65 113.09 266.57 114.18 263C115.28 259.43 119.75 249.07 124.14 240C128.52 230.93 134.17 220.13 136.7 216C139.23 211.88 143.32 205.35 145.78 201.5C148.53 197.2 156.28 188.48 165.88 178.9C174.63 170.17 186.12 159.9 192 155.55C197.78 151.29 204.02 147.06 205.88 146.15C207.74 145.24 209.68 143.94 210.19 143.25C210.69 142.56 211.53 142 212.05 142C212.57 142 214.69 140.85 216.75 139.44C218.81 138.03 225.68 134.25 232 131.03C238.32 127.82 247.32 123.62 252 121.7C256.68 119.78 264.77 117.07 270 115.67C275.23 114.28 282.88 112.36 287 111.41C291.13 110.46 297.43 109.37 301 108.98C304.57 108.6 315.94 108.22 345 108ZM267.5 141.39C264.2 142.8 260.49 143.96 259.25 143.98C258.01 143.99 257 144.45 257 145C257 145.55 256.44 146.01 255.75 146.01C255.06 146.02 249.78 148.31 244 151.09C238.22 153.87 229.22 158.66 224 161.73C218.78 164.79 212.25 169.11 209.5 171.32C206.75 173.53 197.82 181.9 189.66 189.92C181.49 197.94 172.47 207.43 169.6 211C166.73 214.57 161.16 222.45 157.22 228.5C152.61 235.57 147.14 246.12 141.92 258C135.56 272.49 133.39 278.67 131.92 286.5C130.89 292 129.12 300.77 127.99 306C126.86 311.23 125.68 319.55 125.37 324.5C125.06 329.45 125.26 341.82 125.82 352C126.69 367.97 127.35 372.55 130.59 385.5C132.65 393.75 135.84 403.76 137.67 407.75C139.5 411.74 141 415.23 141 415.5C141 415.77 145.31 424.66 150.58 435.25C155.84 445.84 161.81 456.82 163.83 459.65C165.85 462.48 175.18 472.83 184.57 482.65C198.93 497.66 203.53 501.79 213.57 508.62C220.13 513.08 229.32 518.84 234 521.41C238.68 523.98 243.18 526.47 244 526.93C244.82 527.39 247.75 528.46 250.5 529.3C253.25 530.14 259.1 532.21 263.5 533.9C267.9 535.58 275.77 538.08 281 539.44C286.23 540.81 294.77 542.4 300 542.98C305.23 543.56 312.2 544.48 315.5 545.01C318.8 545.54 324.99 545.98 329.25 545.99C333.51 546 342.74 545.53 349.75 544.96C356.76 544.38 366.55 543.25 371.5 542.43C376.45 541.61 385.56 539.61 391.75 537.97C397.94 536.34 406.6 533.42 411 531.5C415.4 529.58 419.79 528 420.75 528C421.71 528 427.05 525.18 432.61 521.75C438.17 518.31 446.27 513.04 450.61 510.04C454.95 507.03 465.48 498.01 474 489.98C482.71 481.78 492.68 471.25 496.76 465.94C500.75 460.75 507.94 450.65 512.74 443.5C518.77 434.52 522.49 427.72 524.79 421.5C526.61 416.55 528.57 411.15 529.14 409.5C529.7 407.85 530.52 405.6 530.94 404.5C531.37 403.4 532.21 400.93 532.8 399C533.39 397.07 534.56 392.8 535.38 389.5C536.21 386.2 537.58 378.77 538.43 373C539.51 365.67 539.98 354.81 539.99 337C539.99 319.81 539.54 308.73 538.59 303C537.82 298.32 536.67 293.15 536.03 291.5C535.39 289.85 533.99 284.79 532.93 280.25C531.87 275.71 529.28 268.51 527.18 264.25C525.08 259.99 522.74 254.47 521.98 252C521.22 249.53 519.76 246.38 518.73 245C517.69 243.63 514.58 238.45 511.81 233.5C509.04 228.55 504.24 220.9 501.14 216.5C498.04 212.1 488.3 201.24 479.5 192.37C470.55 183.34 460.86 174.57 457.5 172.44C454.2 170.36 449.25 166.96 446.5 164.89C443.75 162.82 436.55 158.59 430.5 155.48C423.6 151.94 418.57 149.96 417 150.17C415.18 150.41 413.77 151.86 411.8 155.5C410.31 158.25 407.89 163.88 406.43 168C404.96 172.13 402.3 178.43 400.5 182C398.71 185.57 395.05 191.17 392.37 194.44C389.69 197.71 384.8 202.54 381.5 205.19C378.2 207.84 370.77 212.31 365 215.14C359.23 217.96 352.36 221.56 349.75 223.14C345.75 225.55 344.91 226.59 344.43 229.75C344.04 232.31 344.36 234.21 345.43 235.75C346.29 236.99 348.01 238.51 349.25 239.14C351.05 240.05 353.1 239.83 359.5 238.04C363.9 236.81 369.3 234.89 371.5 233.79C373.7 232.69 379.1 229.69 383.5 227.14C388.94 223.99 394.55 219.44 401 212.95C406.23 207.7 412.03 201.4 413.9 198.95C415.78 196.5 418.81 191.24 420.65 187.25C422.78 182.64 425 179.39 426.75 178.33C429.01 176.96 430.12 176.86 433 177.77C434.93 178.38 439.43 180.81 443 183.16C446.57 185.52 456.19 193.98 464.36 201.97C472.53 209.96 481.98 220.17 485.36 224.66C488.74 229.14 494.64 238.37 498.48 245.16C502.32 251.95 508.02 263.8 511.14 271.5C514.27 279.2 517.52 288.88 518.37 293C519.22 297.13 520.42 304.77 521.04 310C521.71 315.68 522 330.17 521.78 346C521.4 372.15 521.35 372.66 518.12 385C516.32 391.88 513.53 400.54 511.92 404.25C510.31 407.96 509.02 411.79 509.03 412.75C509.05 413.71 508.21 415.63 507.17 417C506.12 418.38 503.86 422.31 502.13 425.75C500.41 429.19 496.92 435.26 494.37 439.25C491.83 443.24 487.38 449.65 484.5 453.5C481.61 457.35 472.33 467.25 463.87 475.51C455.42 483.77 445.35 492.6 441.5 495.14C437.65 497.69 431.8 501.19 428.5 502.92C425.2 504.66 420.93 507.2 419 508.57C417.07 509.95 413.7 511.67 411.5 512.39C409.3 513.11 405.25 514.49 402.5 515.44C399.75 516.4 392.55 518.74 386.5 520.64C380.45 522.55 373.02 524.54 370 525.06C366.98 525.59 359.77 526.73 354 527.6C346.32 528.75 339.46 529.02 328.5 528.62C320.25 528.32 308.44 527.16 302.25 526.04C296.06 524.92 282.34 521.23 271.75 517.84C254.83 512.43 250.98 510.78 240 504.23C233.13 500.13 225.36 495.25 222.75 493.39C220.14 491.52 217.66 489.98 217.25 489.96C216.84 489.93 215.02 488.7 213.21 487.21C211.41 485.72 207.85 482.7 205.32 480.5C202.78 478.3 197.51 472.74 193.6 468.14C189.7 463.55 183.88 456.12 180.67 451.64C177.47 447.16 171.76 438.32 167.98 432C164.21 425.68 159.75 417.01 158.06 412.75C156.38 408.49 155 404.55 155 404C155 403.45 153.2 397.71 151 391.25C148.38 383.57 146.59 376.03 145.83 369.5C145.19 364 144.67 349.82 144.67 338C144.67 326.18 145.15 312.45 145.72 307.5C146.3 302.55 147.3 296.48 147.94 294C148.58 291.52 150.72 284.55 152.68 278.5C154.65 272.45 157.37 264.8 158.72 261.5C160.07 258.2 164.17 250.17 167.84 243.64C173.5 233.56 176.6 229.52 188.57 216.64C196.31 208.32 206.89 197.53 212.07 192.67C217.65 187.45 225.58 181.35 231.5 177.75C237 174.4 242.85 170.66 244.5 169.45C246.15 168.24 252 165.61 257.5 163.61C263 161.6 268.74 159.97 270.25 159.98C271.76 159.99 273.9 160.45 275 161C276.1 161.55 279.59 165.26 282.75 169.24C285.91 173.22 290.98 178.92 294 181.9C297.02 184.88 301.3 188.62 303.5 190.21C305.7 191.81 309.75 193.78 312.5 194.59C316.21 195.68 318.21 195.8 320.25 195.03C321.76 194.46 323.26 192.99 323.58 191.75C323.9 190.51 323.53 187.93 322.76 186C321.99 184.07 319.38 180.93 316.96 179C314.54 177.07 310.04 173.03 306.95 170C302.53 165.67 301 163.33 299.75 159C298.89 155.97 297.86 151.03 297.46 148C297.07 144.97 296.42 141.6 296.02 140.5C295.62 139.4 293.66 137.71 291.65 136.75C289.64 135.79 287.21 135.02 286.25 135.05C285.29 135.08 282.02 135.94 279 136.96C275.98 137.98 270.8 139.97 267.5 141.39ZM235.51 203.72C230.57 207.45 220.67 216.17 213.51 223.11C205.43 230.94 198.34 238.89 194.79 244.11C191.65 248.72 186.17 258.57 182.62 266C179.07 273.43 174.52 284.45 172.52 290.5C170.51 296.55 168.48 304.65 168.02 308.5C167.55 312.35 166.87 323.15 166.5 332.5C166.11 342.53 166.27 353.8 166.9 360C167.69 367.79 169.23 374.37 172.86 385.5C175.55 393.75 179.66 404.32 181.99 409C184.31 413.68 187.83 420.2 189.79 423.5C191.76 426.8 196.51 433.77 200.34 439C204.18 444.23 211.64 452.72 216.91 457.88C222.18 463.03 228.92 469.11 231.87 471.38C234.82 473.64 239.32 476.97 241.87 478.77C244.42 480.56 249.88 483.79 254 485.93C258.13 488.08 266.45 491.87 272.5 494.36C278.55 496.85 286.65 499.61 290.5 500.51C294.35 501.41 302 502.75 307.5 503.51C313 504.26 321.1 505.15 325.5 505.49C330.3 505.85 339.29 505.47 348 504.54C355.98 503.68 367.45 502.04 373.5 500.88C380.53 499.54 389.55 496.79 398.5 493.26C406.2 490.23 413.4 486.97 414.5 486.02C415.6 485.06 419.2 482.42 422.5 480.13C425.8 477.84 430.41 474.51 432.75 472.74C435.09 470.96 439.36 467.72 442.25 465.53C445.14 463.35 452 456.26 457.5 449.76C463 443.26 468.93 436.27 470.68 434.22C472.43 432.18 477.18 423.98 481.23 416C485.29 408.02 490.03 397.45 491.78 392.5C493.53 387.55 495.72 380.13 496.66 376C498.05 369.89 498.37 363.29 498.38 340.5C498.38 318.45 498.03 310.69 496.72 304C495.8 299.32 493.02 289.54 490.53 282.25C488.04 274.96 484.86 266.86 483.48 264.25C482.09 261.64 479.84 257.7 478.48 255.5C477.12 253.3 474.9 249.25 473.56 246.5C471.9 243.1 466.85 237.3 457.81 228.4C450.49 221.2 443.04 214.56 441.25 213.65C438.08 212.04 437.9 212.07 433.88 214.75C431.61 216.26 425.96 221.55 421.33 226.5C416.69 231.45 412.19 236.18 411.32 237C410.45 237.82 407.66 240.25 405.12 242.38C402.58 244.51 397.57 247.96 394 250.03C390.43 252.11 382.1 255.69 375.5 258C368.9 260.31 361.02 262.76 358 263.45C354.98 264.14 351.15 265.39 349.5 266.23C347.85 267.07 345.93 268.38 345.23 269.13C344.52 269.88 344.07 271.85 344.23 273.5C344.49 276.35 344.8 276.54 350.5 277.41C355.35 278.14 358.42 277.91 366.5 276.19C372 275.03 380.1 272.63 384.5 270.87C388.9 269.11 397.23 264.86 403 261.43C408.77 258 417.06 252.12 421.4 248.35C425.75 244.58 430.7 240.41 432.4 239.07C434.11 237.73 437.16 236.38 439.2 236.07C442.55 235.55 443.26 235.88 446.7 239.53C448.79 241.75 453.28 248.27 456.67 254.03C460.06 259.79 465.14 269.23 467.96 275C470.77 280.77 474.39 289.77 475.99 295C477.6 300.23 480.06 310.24 481.46 317.25C483.25 326.26 484 333.22 484 341C484 348.04 483.27 355.69 481.96 362.25C480.84 367.89 478.99 375.43 477.84 379C476.69 382.57 472.52 392.25 468.57 400.5C464.62 408.75 459.08 418.88 456.26 423C453.41 427.17 444.56 436.99 436.32 445.13C428.17 453.18 418.8 461.47 415.5 463.56C412.2 465.65 402.98 470.56 395 474.48C385.29 479.25 377.36 482.37 371 483.95C362.14 486.13 359.44 486.3 331 486.4L300.5 486.5C285 480.46 274.88 476.16 268 473.06C261.13 469.96 253.7 466.19 251.5 464.7C249.3 463.2 243.5 458.5 238.6 454.24C233.71 449.98 228.99 445.64 228.1 444.59C227.22 443.54 222.52 438.37 217.66 433.09C209.49 424.22 208.16 422.15 199.95 405.5C194.35 394.14 190.34 384.55 189.08 379.5C187.98 375.1 186.56 364.98 185.92 357C185.27 348.83 185.04 337.26 185.41 330.5C185.77 323.9 186.53 314.23 187.09 309C187.66 303.77 188.74 297.02 189.51 294C190.27 290.98 193.22 283.32 196.07 277C198.92 270.68 201.97 264.38 202.84 263C203.71 261.63 206.44 257.8 208.91 254.5C211.37 251.2 220.17 241.61 228.45 233.19C236.73 224.77 245.53 216.59 248 215.01C250.47 213.43 253.63 211.82 255 211.44C256.75 210.94 258.7 211.41 261.5 213C263.7 214.25 268.43 217.64 272 220.54C275.57 223.44 281.88 227.63 286 229.85C290.13 232.07 297.66 235.26 302.75 236.94C307.84 238.62 313.38 240 315.08 240C317.18 240 319.08 239.05 321.08 237C323.46 234.55 323.9 233.4 323.46 230.75C323.17 228.96 321.93 226.49 320.71 225.26C319.5 224.03 316.59 222.57 314.25 222.01C311.91 221.45 306.74 219.36 302.75 217.35C298.76 215.35 294.15 212.77 292.5 211.63C290.85 210.48 283.65 205.16 276.5 199.79C268.02 193.43 262.61 190.03 260.94 190.02C259.53 190.01 255.25 191.56 251.44 193.47C247.62 195.38 240.45 199.99 235.51 203.72ZM239.62 254.36C234.74 259.39 228.54 266.65 225.84 270.5C223.15 274.35 219.09 281.77 216.83 287C214.57 292.23 211.7 300.55 210.45 305.5C209.2 310.45 207.69 317.99 207.09 322.25C206.49 326.51 206 334.39 206 339.75C206.01 345.11 206.63 353.32 207.4 358C208.16 362.68 209.58 369.2 210.56 372.5C211.53 375.8 215.74 385.25 219.92 393.5L227.5 408.5C236.8 409.55 256.26 410.34 276.75 410.93C297.24 411.52 314.9 412.45 316 413C317.1 413.55 318.26 415.01 318.58 416.25C318.9 417.49 318.41 420.3 317.5 422.5C316.59 424.7 313.51 429.84 310.67 433.93C305.72 441.04 305.5 441.64 305.5 447.93C305.5 453.24 306.07 455.64 308.5 460.44C310.15 463.71 313.3 468.28 315.5 470.6C319.23 474.52 319.98 474.85 326.5 475.55C330.99 476.03 335.65 475.86 339.5 475.07C344.32 474.09 346.35 473.04 349.83 469.68C352.21 467.38 355.36 463.48 356.83 461C359.14 457.11 359.5 455.39 359.5 448.34C359.5 440.57 359.35 440 356.22 436.34C354.41 434.23 351.6 429.8 349.97 426.5C348.34 423.2 346.99 419.6 346.97 418.5C346.95 417.4 347.74 415.7 348.72 414.73C350.31 413.16 354.06 412.87 383.5 412.03C401.65 411.51 419.88 410.83 424 410.51C428.13 410.19 433.07 409.63 435 409.26C438.05 408.68 439.2 407.5 443.96 400.05C446.97 395.35 450.86 387.68 452.61 383C454.36 378.32 456.82 370 458.07 364.5C459.94 356.3 460.35 351.62 460.33 338.5C460.31 325.75 459.89 320.78 458.23 314C457.09 309.32 454.54 301 452.56 295.5C450.59 290 447.52 283.11 445.74 280.19C443.96 277.27 441.6 273.97 440.5 272.86C438.78 271.12 438.02 270.99 435 271.89C433.07 272.47 427.23 275.51 422 278.65C416.77 281.78 407.1 286.91 400.5 290.04C393.9 293.17 385.8 296.48 382.5 297.39C379.2 298.3 374.97 300.28 373.1 301.78L369.7 304.5C368.26 327.11 367.53 331.54 366.08 334.5C365 336.7 361.46 341.43 358.21 345C354.96 348.57 350.09 352.72 347.4 354.21C344.7 355.7 340.48 357.2 338 357.54C335.26 357.92 330.56 357.54 326 356.55C321.88 355.67 316.25 353.63 313.5 352.03C310.75 350.44 307.08 347.64 305.33 345.81C303.46 343.85 301.31 339.86 300.06 336C298.9 332.43 297.52 326.8 296.98 323.5C296.45 320.2 296.02 311.88 296.03 305C296.04 295.07 296.42 291.68 297.86 288.5C298.86 286.3 300.32 283.98 301.09 283.35C301.87 282.72 305.88 281.7 310 281.08C314.13 280.46 318.63 279.13 320 278.12C321.38 277.11 322.64 275.44 322.81 274.39C322.98 273.35 322.08 271.48 320.81 270.23C319.54 268.97 315.8 266.85 312.5 265.52C309.2 264.18 303.13 262.11 299 260.93C294.88 259.75 283.74 254.78 274.25 249.89C264.76 245 256.66 241 256.25 241C255.84 241.01 253.93 241.95 252 243.11C250.07 244.27 244.51 249.33 239.62 254.36ZM331.5 434.12C334.25 434.12 338.06 434.65 339.97 435.31C341.89 435.96 344.01 437.62 344.71 439C345.4 440.38 345.97 444.65 345.97 448.5C345.97 452.35 345.41 456.58 344.74 457.89C344.06 459.21 341.25 461.56 338.5 463.12C334.21 465.54 333 465.81 330 465.02C328.07 464.5 324.59 462.72 322.25 461.04C319.67 459.2 317.75 456.92 317.37 455.25C317.03 453.74 317.04 450.25 317.4 447.5C317.76 444.75 318.99 441.02 320.12 439.22C321.26 437.41 323.16 435.52 324.35 435.03C325.53 434.53 328.75 434.12 331.5 434.12Z" />
</svg>